<?xml version="1.0" encoding="UTF-8"?>
<svg id="Layer_2" data-name="Layer 2" xmlns="http://www.w3.org/2000/svg" xmlns:xlink="http://www.w3.org/1999/xlink" viewBox="0 0 425.2 113.29">
  <defs>
    <style>
      .cls-1 {
        fill: url(#linear-gradient);
      }
    </style>
    <linearGradient id="linear-gradient" x1="214.22" y1="88.57" x2="203.14" y2="-142.69" gradientUnits="userSpaceOnUse">
      <stop offset="0" stop-color="#fff" stop-opacity="0"/>
      <stop offset=".6" stop-color="#d7d8d9" stop-opacity=".6"/>
      <stop offset="1" stop-color="#e6e7e8"/>
    </linearGradient>
  </defs>
  <g id="Capa_1" data-name="Capa 1">
    <path class="cls-1" d="m210.72,112.66l-.05.04L0,7.79v19.53l210.6,85.44-.13.13L0,44.07v14.78l210.41,54.1-.07.06L0,72.26v12.44l210.28,28.37-.08.07.09-.07h.09s-.12.09-.12.09L0,96.51v11.39l210.42,5.34-.04.02.05-.02h.06s-.1.03-.1.03l.13-.03h.05s-.19.03-.19.03l.29-.02h.18s0,.03,0,.03v-.03s.1.04.1.04v-.04l.13.02v-.02s.46.01.46.01l-.48-.04v-.02s.14-.01.14-.01l.34.05-.27-.05h.06s.22.05.22.05l-.18-.06h.12s.03.02.03.02l-.02-.03h.1s.04,0,.04,0l-.04-.02,213.59-17.4v-12l-213.54,29.33-.08-.06,213.62-41.95v-13.65l-213.7,55.54-.09-.06,213.78-70.56v-17.07l-213.85,87.58-.19-.15L425.2,5.32V1.7c-1.06-.57-2.13-1.14-3.21-1.7h-27.61l-183.28,112.65.1-.25L359.66,0h-30.24l-118.1,112.09L302.42,0h-24.83l-65.82,110.89L254.43,0h-22.26l-21.09,112.05-.13.22-.42-112.27h-21.71l21.94,112.27-.12-.15L166.57,0h-23.33l66.52,111.06L118.47,0h-27.16l119.12,112.17h0S60.98,0,60.98,0H26.01l184.59,112.46.12.19Z"/>
  </g>
</svg>